<svg width="120" height="120" viewBox="0 0 120 120" fill="none" xmlns="http://www.w3.org/2000/svg">
<path d="M120 60C120 93.1371 93.1371 120 60 120C26.8629 120 0 93.1371 0 60C0 26.8629 26.8629 0 60 0C93.1371 0 120 26.8629 120 60Z" fill="#6F3F95"/>
<path d="M120 60C120 93.1371 93.1371 120 60 120C26.8629 120 0 93.1371 0 60C0 26.8629 26.8629 0 60 0C93.1371 0 120 26.8629 120 60Z" fill="#6F3F95"/>
<path fill-rule="evenodd" clip-rule="evenodd" d="M60 116C90.9279 116 116 90.9279 116 60C116 29.0721 90.9279 4 60 4C29.0721 4 4 29.0721 4 60C4 90.9279 29.0721 116 60 116ZM60 120C93.1371 120 120 93.1371 120 60C120 26.8629 93.1371 0 60 0C26.8629 0 0 26.8629 0 60C0 93.1371 26.8629 120 60 120Z" fill="#57307C"/>
<path fill-rule="evenodd" clip-rule="evenodd" d="M63.8232 106.39C69.5733 101.975 74.3473 105.852 78.7185 110.237C73.0749 111.946 67.0986 112.722 63.8232 106.39Z" fill="#BFC90D"/>
<path fill-rule="evenodd" clip-rule="evenodd" d="M65.2058 102.59C65.461 94.8093 71.1 92.8522 76.8635 91.5576C74.7252 97.6277 71.716 103.438 65.2058 102.59Z" fill="#BFC90D"/>
<path fill-rule="evenodd" clip-rule="evenodd" d="M74.0775 102.885C79.4725 97.9428 84.5231 101.356 89.2119 105.313C83.718 107.549 77.8217 108.885 74.0775 102.885Z" fill="#BFC90D"/>
<path fill-rule="evenodd" clip-rule="evenodd" d="M79.0802 99.195C75.7184 92.3715 79.6572 87.4642 84.0083 83.0538C84.9667 89.4873 85.0582 96.1969 79.0802 99.195Z" fill="#BFC90D"/>
<path fill-rule="evenodd" clip-rule="evenodd" d="M83.4472 99.0431C87.4164 92.6381 93.1138 94.3721 98.5964 96.7396C93.8652 100.573 88.5251 103.665 83.4472 99.0431Z" fill="#BFC90D"/>
<path fill-rule="evenodd" clip-rule="evenodd" d="M89.053 93.3304C83.917 88.0567 86.2487 82.0058 89.1134 76.2795C91.8597 82.0373 93.863 88.3644 89.053 93.3304Z" fill="#BFC90D"/>
<path fill-rule="evenodd" clip-rule="evenodd" d="M91.7814 92.686C94.5858 85.556 100.475 86.0498 106.261 87.2112C102.27 91.978 97.5551 96.1461 91.7814 92.686Z" fill="#BFC90D"/>
<path fill-rule="evenodd" clip-rule="evenodd" d="M96.4608 85.793C90.5367 81.6731 91.8217 75.2449 93.6842 69.0254C97.3405 74.1152 100.361 79.9181 96.4608 85.793Z" fill="#BFC90D"/>
<path fill-rule="evenodd" clip-rule="evenodd" d="M98.5289 84.8284C100.074 77.2357 105.94 76.4787 111.819 76.3987C108.708 81.9211 104.785 87.0084 98.5289 84.8284Z" fill="#BFC90D"/>
<path fill-rule="evenodd" clip-rule="evenodd" d="M100.288 73.6705C93.9797 70.334 94.5962 63.7841 95.8079 57.3685C99.9628 61.958 103.56 67.3371 100.288 73.6705Z" fill="#BFC90D"/>
<path fill-rule="evenodd" clip-rule="evenodd" d="M101.339 75.8417C102.064 68.0981 107.809 66.5698 113.639 65.7117C111.138 71.607 107.784 77.1777 101.339 75.8417Z" fill="#BFC90D"/>
<path fill-rule="evenodd" clip-rule="evenodd" d="M102.94 60.9777C96.1223 59.2974 95.4109 52.7594 95.3064 46.2041C100.276 49.6423 104.86 53.989 102.94 60.9777Z" fill="#BFC90D"/>
<path fill-rule="evenodd" clip-rule="evenodd" d="M104.274 66.6882C102.301 59.2197 107.091 55.3676 112.189 52.0996C111.889 58.6127 110.689 65.1878 104.274 66.6882Z" fill="#BFC90D"/>
<path fill-rule="evenodd" clip-rule="evenodd" d="M100.258 46.3074C93.2849 46.6968 91.0487 40.6012 89.3938 34.3094C95.0015 36.1602 100.453 39.0009 100.258 46.3074Z" fill="#BFC90D"/>
<path fill-rule="evenodd" clip-rule="evenodd" d="M104.748 54.6881C100.557 48.4608 103.837 42.9837 107.587 37.9346C109.349 44.1532 110.287 50.7804 104.748 54.6881Z" fill="#BFC90D"/>
<path fill-rule="evenodd" clip-rule="evenodd" d="M97.2078 35.2299C90.2378 34.7814 88.6019 28.4532 87.5628 22C92.9597 24.512 98.1055 27.9895 97.2078 35.2299Z" fill="#BFC90D"/>
<path fill-rule="evenodd" clip-rule="evenodd" d="M101.656 41.9482C96.4194 36.7995 98.6334 30.6939 101.386 24.8999C104.244 30.5901 106.369 36.8674 101.656 41.9482Z" fill="#BFC90D"/>
<path fill-rule="evenodd" clip-rule="evenodd" d="M56.8152 106.503C51.0651 102.087 46.2912 105.964 41.9199 110.349C47.5635 112.059 53.5399 112.834 56.8152 106.503Z" fill="#BFC90D"/>
<path fill-rule="evenodd" clip-rule="evenodd" d="M55.4331 102.702C55.1779 94.9218 49.5389 92.9646 43.7754 91.67C45.9137 97.7401 48.923 103.55 55.4331 102.702Z" fill="#BFC90D"/>
<path fill-rule="evenodd" clip-rule="evenodd" d="M46.5612 102.997C41.1661 98.0553 36.1156 101.469 31.4268 105.426C36.9206 107.661 42.817 108.997 46.5612 102.997Z" fill="#BFC90D"/>
<path fill-rule="evenodd" clip-rule="evenodd" d="M41.5585 99.3074C44.9203 92.4839 40.9815 87.5766 36.6304 83.1663C35.672 89.5998 35.5805 96.3093 41.5585 99.3074Z" fill="#BFC90D"/>
<path fill-rule="evenodd" clip-rule="evenodd" d="M37.1915 99.1555C33.2223 92.7505 27.5249 94.4845 22.0422 96.852C26.7735 100.685 32.1136 103.777 37.1915 99.1555Z" fill="#BFC90D"/>
<path fill-rule="evenodd" clip-rule="evenodd" d="M31.5857 93.4426C36.7217 88.169 34.3899 82.1181 31.5253 76.3918C28.779 82.1496 26.7756 88.4767 31.5857 93.4426Z" fill="#BFC90D"/>
<path fill-rule="evenodd" clip-rule="evenodd" d="M28.8572 92.7985C26.0528 85.6685 20.1637 86.1624 14.3772 87.3237C18.3683 92.0906 23.0835 96.2587 28.8572 92.7985Z" fill="#BFC90D"/>
<path fill-rule="evenodd" clip-rule="evenodd" d="M24.1779 85.9054C30.1019 81.7855 28.8169 75.3574 26.9545 69.1378C23.2981 74.2277 20.2772 80.0305 24.1779 85.9054Z" fill="#BFC90D"/>
<path fill-rule="evenodd" clip-rule="evenodd" d="M22.1098 84.9407C20.5651 77.348 14.6985 76.591 8.81958 76.511C11.9303 82.0335 15.8537 87.1208 22.1098 84.9407Z" fill="#BFC90D"/>
<path fill-rule="evenodd" clip-rule="evenodd" d="M20.3509 73.7829C26.659 70.4465 26.0425 63.8965 24.8308 57.481C20.6759 62.0705 17.0791 67.4495 20.3509 73.7829Z" fill="#BFC90D"/>
<path fill-rule="evenodd" clip-rule="evenodd" d="M19.2995 75.9542C18.5743 68.2106 12.8296 66.6822 7 65.8241C9.50074 71.7195 12.8546 77.2902 19.2995 75.9542Z" fill="#BFC90D"/>
<path fill-rule="evenodd" clip-rule="evenodd" d="M17.6991 61.0901C24.5163 59.4099 25.2278 52.8719 25.3322 46.3165C20.3628 49.7548 15.7791 54.1015 17.6991 61.0901Z" fill="#BFC90D"/>
<path fill-rule="evenodd" clip-rule="evenodd" d="M16.3647 66.8005C18.3376 59.332 13.5473 55.48 8.44995 52.2119C8.7498 58.725 9.94943 65.3001 16.3647 66.8005Z" fill="#BFC90D"/>
<path fill-rule="evenodd" clip-rule="evenodd" d="M20.3808 46.4197C27.3538 46.8091 29.5899 40.7135 31.2449 34.4218C25.6372 36.2725 20.1861 39.1132 20.3808 46.4197Z" fill="#BFC90D"/>
<path fill-rule="evenodd" clip-rule="evenodd" d="M15.8912 54.8006C20.0817 48.5732 16.8021 43.0962 13.0516 38.047C11.2899 44.2657 10.3517 50.8928 15.8912 54.8006Z" fill="#BFC90D"/>
<path fill-rule="evenodd" clip-rule="evenodd" d="M23.4309 35.3423C30.4009 34.8938 32.0368 28.5656 33.0759 22.1124C27.679 24.6244 22.5332 28.102 23.4309 35.3423Z" fill="#BFC90D"/>
<path fill-rule="evenodd" clip-rule="evenodd" d="M18.9822 42.0605C24.2192 36.9118 22.0053 30.8062 19.2523 25.0122C16.395 30.7024 14.2695 36.9797 18.9822 42.0605Z" fill="#BFC90D"/>
<path d="M62.3223 104.934C62.3223 105.532 62.1092 106.106 61.7299 106.529C61.3506 106.952 60.8362 107.189 60.2998 107.189C59.7634 107.189 59.249 106.952 58.8697 106.529C58.4904 106.106 58.2773 105.532 58.2773 104.934C58.2773 104.336 58.4904 103.762 58.8697 103.339C59.249 102.916 59.7634 102.678 60.2998 102.678C60.8362 102.678 61.3506 102.916 61.7299 103.339C62.1092 103.762 62.3223 104.336 62.3223 104.934Z" fill="#BFC90D"/>
<path d="M88 59.5C88 75.2401 75.2401 88 59.5 88C43.7599 88 31 75.2401 31 59.5C31 43.7599 43.7599 31 59.5 31C75.2401 31 88 43.7599 88 59.5Z" fill="#F9DD62"/>
<path fill-rule="evenodd" clip-rule="evenodd" d="M59.5001 83.8333C72.939 83.8333 83.8334 72.9389 83.8334 59.5C83.8334 46.061 72.939 35.1666 59.5001 35.1666C46.0612 35.1666 35.1667 46.061 35.1667 59.5C35.1667 72.9389 46.0612 83.8333 59.5001 83.8333ZM59.5001 84.8333C73.4913 84.8333 84.8334 73.4912 84.8334 59.5C84.8334 45.5087 73.4913 34.1666 59.5001 34.1666C45.5089 34.1666 34.1667 45.5087 34.1667 59.5C34.1667 73.4912 45.5089 84.8333 59.5001 84.8333Z" fill="#F8980E"/>
<path d="M84 59.5C84 73.031 73.031 84 59.5 84C45.969 84 35 73.031 35 59.5C35 45.969 45.969 35 59.5 35C73.031 35 84 45.969 84 59.5Z" fill="#FCB543"/>
<path d="M52.1675 73.2223V70.0505L56.7926 69.5068V51.6363H52.1111V48.6095L62.2638 46.8334V69.5068L66.8889 70.0505V73.2223H52.1675Z" fill="#FFF4C5"/>
</svg>
