<svg width="120" height="120" viewBox="0 0 120 120" fill="none" xmlns="http://www.w3.org/2000/svg">
<path d="M120 60C120 93.1371 93.1371 120 60 120C26.8629 120 0 93.1371 0 60C0 26.8629 26.8629 0 60 0C93.1371 0 120 26.8629 120 60Z" fill="#FDBF4C"/>
<path d="M120 60C120 93.1371 93.1371 120 60 120C26.8629 120 0 93.1371 0 60C0 26.8629 26.8629 0 60 0C93.1371 0 120 26.8629 120 60Z" fill="#FFE26A"/>
<path fill-rule="evenodd" clip-rule="evenodd" d="M60 116C90.9279 116 116 90.9279 116 60C116 29.0721 90.9279 4 60 4C29.0721 4 4 29.0721 4 60C4 90.9279 29.0721 116 60 116ZM60 120C93.1371 120 120 93.1371 120 60C120 26.8629 93.1371 0 60 0C26.8629 0 0 26.8629 0 60C0 93.1371 26.8629 120 60 120Z" fill="#FCAC33"/>
<path fill-rule="evenodd" clip-rule="evenodd" d="M55.2047 11.3399C56.9184 7.71077 62.0815 7.71077 63.7952 11.3399L74.6417 34.3104C75.118 35.3189 76.078 36.0128 77.185 36.1485L102.532 39.2568C106.546 39.7489 108.148 44.7115 105.18 47.4579L86.5717 64.6763C85.7452 65.4411 85.3735 66.5793 85.5892 67.6845L90.4307 92.4853C91.2018 96.4357 87.0179 99.4948 83.4874 97.5617L61.0608 85.2822C60.0884 84.7498 58.9116 84.7498 57.9391 85.2822L35.5125 97.5617C31.982 99.4948 27.7981 96.4357 28.5692 92.4853L33.4107 67.6845C33.6264 66.5793 33.2547 65.4411 32.4282 64.6763L13.8199 47.4579C10.8519 44.7115 12.4541 39.7489 16.4678 39.2568L41.8149 36.1485C42.9219 36.0128 43.882 35.3189 44.3582 34.3104L55.2047 11.3399ZM62.4388 11.9803C61.2663 9.49728 57.7336 9.49728 56.5611 11.9803L45.7146 34.9509C45.0186 36.4248 43.6154 37.439 41.9975 37.6374L16.6504 40.7456C13.9042 41.0824 12.8079 44.4778 14.8387 46.3569L33.4469 63.5753C34.6549 64.6931 35.1982 66.3566 34.8829 67.9719L30.0415 92.7727C29.5138 95.4756 32.3765 97.5686 34.7921 96.246L57.2187 83.9666C58.64 83.1883 60.3599 83.1883 61.7812 83.9666L84.2078 96.246C86.6234 97.5686 89.4861 95.4756 88.9585 92.7727L84.117 67.9719C83.8017 66.3566 84.345 64.6931 85.553 63.5754L104.161 46.3569C106.192 44.4778 105.096 41.0824 102.35 40.7456L77.0024 37.6374C75.3845 37.439 73.9814 36.4248 73.2854 34.9509L62.4388 11.9803Z" fill="white" fill-opacity="0.9"/>
<path d="M57.6882 23.8748C58.407 22.3376 60.5929 22.3376 61.3117 23.8748L69.934 42.3155C70.0798 42.6272 70.3755 42.842 70.717 42.8843L90.9196 45.3862C92.6036 45.5948 93.2791 47.6738 92.0393 48.8323L77.1656 62.7312C76.9142 62.9661 76.8013 63.3138 76.8666 63.6516L80.7301 83.6385C81.0521 85.3046 79.2836 86.5895 77.7986 85.7683L59.9839 75.9176C59.6827 75.7511 59.3172 75.7511 59.016 75.9176L41.2013 85.7683C39.7163 86.5895 37.9478 85.3046 38.2698 83.6385L42.1333 63.6516C42.1986 63.3138 42.0857 62.9661 41.8343 62.7312L26.9606 48.8323C25.7208 47.6738 26.3963 45.5948 28.0803 45.3862L48.2829 42.8843C48.6244 42.842 48.9201 42.6272 49.0659 42.3155L57.6882 23.8748Z" fill="#FA5451"/>
<path d="M59.5471 43.9686C59.7268 43.5843 60.2733 43.5843 60.453 43.9686L63.8658 51.2676C63.9387 51.4234 64.0865 51.5309 64.2573 51.552L72.2536 52.5423C72.6746 52.5944 72.8435 53.1142 72.5335 53.4038L66.6464 58.9051C66.5207 59.0225 66.4642 59.1964 66.4969 59.3653L68.0261 67.2763C68.1066 67.6928 67.6645 68.014 67.2932 67.8087L60.242 63.9097C60.0915 63.8265 59.9087 63.8265 59.7581 63.9097L52.7069 67.8087C52.3356 68.014 51.8935 67.6928 51.974 67.2763L53.5032 59.3653C53.5359 59.1964 53.4794 59.0225 53.3537 58.9051L47.4666 53.4038C47.1566 53.1142 47.3255 52.5944 47.7465 52.5423L55.7429 51.552C55.9136 51.5309 56.0615 51.4234 56.1343 51.2676L59.5471 43.9686Z" fill="#FFF5CB"/>
<path d="M47 85.0862C47 84.7242 47.1956 84.3905 47.5114 84.2137L59.0091 77.775C59.3139 77.6043 59.6857 77.605 59.9898 77.7769L70.4921 83.713C70.8059 83.8904 71 84.223 71 84.5835V109.805C71 110.663 69.991 111.123 69.3438 110.56L60.1295 102.547C59.7649 102.23 59.2259 102.219 58.8486 102.521L48.6247 110.7C47.9699 111.224 47 110.758 47 109.919V85.0862Z" fill="white"/>
<path fill-rule="evenodd" clip-rule="evenodd" d="M53 107.2V81.1401L59.0091 77.775C59.3139 77.6043 59.6857 77.605 59.9898 77.7769L65 80.6088V106.783L60.1295 102.547C59.7649 102.23 59.2259 102.219 58.8486 102.521L53 107.2Z" fill="#018EE6"/>
</svg>
