<svg width="120" height="120" viewBox="0 0 120 120" fill="none" xmlns="http://www.w3.org/2000/svg">
<path d="M120 60C120 93.1371 93.1371 120 60 120C26.8629 120 0 93.1371 0 60C0 26.8629 26.8629 0 60 0C93.1371 0 120 26.8629 120 60Z" fill="#FC393F"/>
<path d="M120 60C120 93.1371 93.1371 120 60 120C26.8629 120 0 93.1371 0 60C0 26.8629 26.8629 0 60 0C93.1371 0 120 26.8629 120 60Z" fill="#FC393F"/>
<path fill-rule="evenodd" clip-rule="evenodd" d="M60 116C90.9279 116 116 90.9279 116 60C116 29.0721 90.9279 4 60 4C29.0721 4 4 29.0721 4 60C4 90.9279 29.0721 116 60 116ZM60 120C93.1371 120 120 93.1371 120 60C120 26.8629 93.1371 0 60 0C26.8629 0 0 26.8629 0 60C0 93.1371 26.8629 120 60 120Z" fill="#C5090A"/>
<path d="M58.2602 16.2381C59.3016 15.497 60.6981 15.497 61.7394 16.2381L65.2174 18.7135C65.8934 19.1947 66.7386 19.3743 67.552 19.2097L71.7361 18.363C72.9888 18.1094 74.2646 18.6775 74.9145 19.7781L77.0849 23.454C77.5068 24.1686 78.2059 24.6765 79.0159 24.857L83.1826 25.7852C84.4302 26.0632 85.3647 27.101 85.5107 28.3708L85.9983 32.6117C86.0931 33.4362 86.5251 34.1845 87.1917 34.6788L90.6207 37.2216C91.6473 37.9829 92.0789 39.3111 91.6958 40.5305L90.4163 44.6031C90.1676 45.3948 90.2579 46.2542 90.6658 46.9768L92.7641 50.6945C93.3923 51.8076 93.2463 53.1964 92.4004 54.1546L89.575 57.3547C89.0258 57.9768 88.7588 58.7986 88.8375 59.6247L89.2422 63.8744C89.3634 65.1468 88.6651 66.3562 87.5026 66.8874L83.6199 68.6617C82.8652 69.0066 82.287 69.6488 82.0228 70.4355L80.6641 74.4824C80.2573 75.694 79.1275 76.5149 77.8494 76.5274L73.5807 76.5691C72.7509 76.5772 71.9615 76.9286 71.4002 77.5399L68.513 80.6842C67.6485 81.6257 66.2825 81.916 65.1098 81.4076L61.1932 79.7094C60.4319 79.3793 59.5678 79.3793 58.8064 79.7094L54.8898 81.4076C53.7172 81.916 52.3511 81.6257 51.4867 80.6842L48.5994 77.5399C48.0381 76.9286 47.2487 76.5772 46.4189 76.5691L42.1502 76.5274C40.8722 76.5149 39.7423 75.694 39.3355 74.4824L37.9768 70.4355C37.7127 69.6488 37.1345 69.0066 36.3797 68.6617L32.497 66.8874C31.3345 66.3562 30.6362 65.1468 30.7574 63.8744L31.1622 59.6247C31.2409 58.7986 30.9739 57.9768 30.4246 57.3547L27.5993 54.1546C26.7533 53.1964 26.6074 51.8075 27.2356 50.6945L29.3339 46.9768C29.7418 46.2542 29.8321 45.3948 29.5834 44.6031L28.3039 40.5305C27.9208 39.3111 28.3523 37.9829 29.379 37.2216L32.808 34.6788C33.4745 34.1845 33.9066 33.4362 34.0014 32.6117L34.489 28.3708C34.635 27.101 35.5695 26.0632 36.817 25.7852L40.9838 24.857C41.7938 24.6765 42.4928 24.1686 42.9148 23.454L45.0852 19.7781C45.735 18.6775 47.0108 18.1094 48.2636 18.363L52.4476 19.2097C53.261 19.3743 54.1062 19.1947 54.7823 18.7135L58.2602 16.2381Z" fill="#FFDF58"/>
<path fill-rule="evenodd" clip-rule="evenodd" d="M64.6375 19.5282L61.1595 17.0528C60.4653 16.5587 59.5343 16.5587 58.8401 17.0528L55.3622 19.5282C54.4607 20.1698 53.3338 20.4093 52.2493 20.1899L48.0652 19.3431C47.23 19.1741 46.3795 19.5528 45.9463 20.2865L43.7759 23.9625C43.2133 24.9153 42.2812 25.5925 41.2012 25.8331L37.0345 26.7613C36.2028 26.9466 35.5798 27.6385 35.4825 28.485L34.9948 32.726C34.8684 33.8252 34.2924 34.823 33.4036 35.482L29.9746 38.0248C29.2902 38.5324 29.0025 39.4178 29.2579 40.2307L30.5374 44.3034C30.869 45.359 30.7486 46.5048 30.2047 47.4684L28.1065 51.186C27.6876 51.928 27.7849 52.854 28.3489 53.4927L31.1743 56.6929C31.9066 57.5223 32.2626 58.6181 32.1577 59.7195L31.7529 63.9692C31.6721 64.8175 32.1376 65.6238 32.9126 65.9779L36.7953 67.7522C37.8017 68.2121 38.5726 69.0683 38.9248 70.1172L40.2835 74.1641C40.5547 74.9719 41.3079 75.5191 42.16 75.5274L46.4287 75.5691C47.5351 75.5799 48.5876 76.0485 49.336 76.8635L52.2233 80.0079C52.7996 80.6355 53.7103 80.8291 54.492 80.4901L58.4086 78.792C59.4238 78.3518 60.5759 78.3518 61.591 78.792L65.5076 80.4901C66.2894 80.8291 67.2001 80.6355 67.7764 80.0079L70.6637 76.8635C71.412 76.0485 72.4645 75.5799 73.571 75.5691L77.8397 75.5274C78.6917 75.5191 79.4449 74.9719 79.7161 74.1641L81.0748 70.1172C81.427 69.0683 82.1979 68.2121 83.2043 67.7522L87.087 65.9779C87.862 65.6238 88.3275 64.8175 88.2467 63.9692L87.842 59.7195C87.7371 58.6181 88.0931 57.5223 88.8254 56.6929L91.6507 53.4927C92.2147 52.854 92.312 51.928 91.8932 51.186L89.7949 47.4684C89.2511 46.5048 89.1306 45.359 89.4623 44.3034L90.7418 40.2307C90.9971 39.4178 90.7094 38.5324 90.025 38.0248L86.596 35.482C85.7073 34.823 85.1312 33.8252 85.0048 32.726L84.5172 28.485C84.4199 27.6385 83.7969 26.9466 82.9652 26.7613L78.7984 25.8331C77.7184 25.5925 76.7864 24.9153 76.2238 23.9625L74.0534 20.2865C73.6201 19.5528 72.7696 19.1741 71.9344 19.3431L67.7504 20.1899C66.6659 20.4093 65.5389 20.1698 64.6375 19.5282ZM61.7394 16.2381C60.6981 15.497 59.3016 15.497 58.2602 16.2381L54.7823 18.7135C54.1062 19.1947 53.261 19.3743 52.4476 19.2097L48.2636 18.363C47.0108 18.1094 45.735 18.6775 45.0852 19.7781L42.9148 23.454C42.4928 24.1686 41.7938 24.6765 40.9838 24.857L36.817 25.7852C35.5695 26.0632 34.635 27.101 34.489 28.3708L34.0014 32.6117C33.9066 33.4362 33.4745 34.1845 32.808 34.6788L29.379 37.2216C28.3523 37.9829 27.9208 39.3111 28.3039 40.5305L29.5834 44.6031C29.8321 45.3948 29.7418 46.2542 29.3339 46.9768L27.2356 50.6945C26.6074 51.8075 26.7533 53.1964 27.5993 54.1546L30.4246 57.3547C30.9739 57.9768 31.2409 58.7986 31.1622 59.6247L30.7574 63.8744C30.6362 65.1468 31.3345 66.3562 32.497 66.8874L36.3797 68.6617C37.1345 69.0066 37.7127 69.6488 37.9768 70.4355L39.3355 74.4824C39.7423 75.694 40.8722 76.5149 42.1502 76.5274L46.4189 76.5691C47.2487 76.5772 48.0381 76.9286 48.5994 77.5399L51.4867 80.6842C52.3511 81.6257 53.7172 81.916 54.8898 81.4076L58.8064 79.7094C59.5678 79.3793 60.4319 79.3793 61.1932 79.7094L65.1098 81.4076C66.2825 81.916 67.6485 81.6257 68.513 80.6842L71.4002 77.5399C71.9615 76.9286 72.7509 76.5772 73.5807 76.5691L77.8494 76.5274C79.1275 76.5149 80.2573 75.694 80.6641 74.4824L82.0228 70.4355C82.287 69.6488 82.8652 69.0066 83.6199 68.6617L87.5026 66.8874C88.6651 66.3562 89.3634 65.1468 89.2422 63.8744L88.8375 59.6247C88.7588 58.7986 89.0258 57.9768 89.575 57.3547L92.4004 54.1546C93.2463 53.1964 93.3923 51.8076 92.7641 50.6945L90.6658 46.9768C90.2579 46.2542 90.1676 45.3948 90.4163 44.6031L91.6958 40.5305C92.0789 39.3111 91.6473 37.9829 90.6207 37.2216L87.1917 34.6788C86.5251 34.1845 86.0931 33.4362 85.9983 32.6117L85.5107 28.3708C85.3647 27.101 84.4302 26.0632 83.1826 25.7852L79.0159 24.857C78.2059 24.6765 77.5068 24.1686 77.0849 23.454L74.9145 19.7781C74.2646 18.6775 72.9888 18.1094 71.7361 18.363L67.552 19.2097C66.7386 19.3743 65.8934 19.1947 65.2174 18.7135L61.7394 16.2381Z" fill="white"/>
<path d="M58.2604 22.2381C59.3017 21.497 60.6983 21.497 61.7396 22.2381L64.1098 23.9251C64.7858 24.4063 65.631 24.5859 66.4444 24.4213L69.2958 23.8442C70.5486 23.5907 71.8244 24.1587 72.4742 25.2593L73.9533 27.7645C74.3752 28.4791 75.0743 28.987 75.8843 29.1674L78.7239 29.8C79.9715 30.078 80.9059 31.1158 81.0519 32.3856L81.3843 35.2757C81.479 36.1001 81.9111 36.8485 82.5777 37.3428L84.9145 39.0757C85.9411 39.837 86.3727 41.1652 85.9896 42.3846L85.1176 45.16C84.8689 45.9517 84.9592 46.8111 85.3671 47.5338L86.7971 50.0673C87.4253 51.1804 87.2793 52.5693 86.4334 53.5274L84.5079 55.7083C83.9587 56.3304 83.6917 57.1522 83.7704 57.9783L84.0462 60.8744C84.1674 62.1468 83.4692 63.3562 82.3066 63.8874L79.6606 65.0966C78.9058 65.4415 78.3276 66.0837 78.0635 66.8704L77.1376 69.6283C76.7308 70.8399 75.6009 71.6608 74.3229 71.6733L71.4138 71.7017C70.584 71.7098 69.7946 72.0612 69.2333 72.6725L67.2657 74.8154C66.4012 75.7568 65.0352 76.0472 63.8625 75.5387L61.1934 74.3814C60.432 74.0513 59.5679 74.0513 58.8066 74.3814L56.1374 75.5387C54.9648 76.0472 53.5988 75.7568 52.7343 74.8154L50.7666 72.6725C50.2054 72.0612 49.416 71.7098 48.5862 71.7017L45.6771 71.6733C44.399 71.6608 43.2692 70.8399 42.8624 69.6283L41.9364 66.8704C41.6723 66.0837 41.0941 65.4415 40.3393 65.0966L37.6933 63.8874C36.5308 63.3562 35.8325 62.1468 35.9537 60.8744L36.2296 57.9783C36.3083 57.1522 36.0412 56.3304 35.492 55.7083L33.5665 53.5274C32.7206 52.5693 32.5746 51.1804 33.2029 50.0673L34.6328 47.5338C35.0407 46.8111 35.131 45.9517 34.8823 45.16L34.0104 42.3846C33.6273 41.1652 34.0588 39.837 35.0855 39.0757L37.4223 37.3428C38.0889 36.8485 38.5209 36.1002 38.6157 35.2757L38.948 32.3856C39.094 31.1158 40.0285 30.078 41.276 29.8L44.1157 29.1674C44.9256 28.987 45.6247 28.4791 46.0466 27.7645L47.5258 25.2593C48.1756 24.1587 49.4514 23.5907 50.7041 23.8442L53.5555 24.4213C54.3689 24.5859 55.2141 24.4063 55.8902 23.9251L58.2604 22.2381Z" fill="#FA990F"/>
<path fill-rule="evenodd" clip-rule="evenodd" d="M62.5273 82.4677L70.7107 104.951C70.9703 105.665 71.8988 105.84 72.4006 105.271L79.5714 97.1339L90.2945 98.7577C91.045 98.8713 91.6436 98.1402 91.3839 97.4269L82.8982 74.1124L82.5602 75.119C81.8822 77.1384 79.9992 78.5065 77.869 78.5273L73.6003 78.569C73.3237 78.5717 73.0606 78.6888 72.8735 78.8926L69.9862 82.037C68.5455 83.606 66.2688 84.09 64.3143 83.2426L62.5273 82.4677Z" fill="white"/>
<path fill-rule="evenodd" clip-rule="evenodd" d="M68.9897 82.8726L75.7444 101.431L79.51 97.1578L85.1413 98.0105L78.0482 78.5223C77.9887 78.525 77.929 78.5267 77.869 78.5273L73.6003 78.5689C73.3237 78.5716 73.0606 78.6888 72.8735 78.8925L69.9862 82.0369C69.6867 82.3631 69.3511 82.6424 68.9897 82.8726Z" fill="#018EE6"/>
<path fill-rule="evenodd" clip-rule="evenodd" d="M37.1328 74.2057L28.5963 97.6597C28.3367 98.373 28.9352 99.1041 29.6857 98.9905L40.4089 97.3667L47.5796 105.503C48.0815 106.073 49.0099 105.897 49.2695 105.184L57.5498 82.4341L55.6854 83.2426C53.731 84.09 51.4542 83.606 50.0135 82.037L47.1262 78.8926C46.9391 78.6888 46.676 78.5717 46.3994 78.569L42.1307 78.5273C40.0005 78.5065 38.1175 77.1384 37.4395 75.119L37.1328 74.2057Z" fill="white"/>
<path fill-rule="evenodd" clip-rule="evenodd" d="M42.0158 78.5249L34.8389 98.2434L40.4701 97.3907L44.2358 101.664L51.063 82.906C50.6814 82.6696 50.3275 82.3791 50.0134 82.037L47.1261 78.8926C46.939 78.6888 46.6759 78.5717 46.3993 78.569L42.1306 78.5273C42.0922 78.527 42.054 78.5261 42.0158 78.5249Z" fill="#018EE6"/>
</svg>
