<svg width="32" height="32" viewBox="0 0 32 32" fill="none" xmlns="http://www.w3.org/2000/svg">
<circle cx="16" cy="16" r="16" fill="#EB3C77"/>
<path d="M26 6.00251C26 6.00251 18.36 5.63251 12.34 13.8825C7.72 20.2125 6 26.0025 6 26.0025L7.94 25.0025C9.38 22.5025 10.13 21.4725 11.54 20.0025C14.07 20.7425 16.71 20.6525 19 18.0025C17 17.4425 15.4 17.5725 13.04 17.8125C15.69 16.0025 17.5 15.6025 20 16.0025L21 14.0025C19.2 13.6625 18 13.6325 16.22 14.0425C18.19 12.6525 19.56 11.8725 22 12.0025L23.21 10.0725C21.65 9.96251 20.71 10.1325 18.92 10.5725C20.53 9.11251 22 8.45251 24.14 8.32251C24.14 8.32251 25.19 6.43251 26 6.00251Z" fill="white"/>
</svg>
