<svg width="32" height="32" viewBox="0 0 32 32" fill="none" xmlns="http://www.w3.org/2000/svg">
<circle cx="16" cy="16" r="16" fill="#8664C6"/>
<path d="M24.3901 23.37L20.3801 22L19.0001 26L15.9201 20L13.0001 26L11.6201 22L7.61011 23.37L10.5301 17.37C9.57011 16.17 9.00011 14.65 9.00011 13C9.00011 11.1435 9.73761 9.36301 11.0504 8.05025C12.3631 6.7375 14.1436 6 16.0001 6C17.8566 6 19.6371 6.7375 20.9499 8.05025C22.2626 9.36301 23.0001 11.1435 23.0001 13C23.0001 14.65 22.4301 16.17 21.4701 17.37L24.3901 23.37ZM11.0001 13L13.6901 14.34L13.5001 17.34L16.0001 15.68L18.5001 17.33L18.3301 14.34L21.0001 13L18.3201 11.65L18.5001 8.67L16.0001 10.31L13.5001 8.65L13.6701 11.66L11.0001 13Z" fill="white"/>
</svg>
