<svg width="120" height="120" viewBox="0 0 120 120" fill="none" xmlns="http://www.w3.org/2000/svg">
<path d="M120 60C120 93.1371 93.1371 120 60 120C26.8629 120 0 93.1371 0 60C0 26.8629 26.8629 0 60 0C93.1371 0 120 26.8629 120 60Z" fill="#9DC950"/>
<path d="M120 60C120 93.1371 93.1371 120 60 120C26.8629 120 0 93.1371 0 60C0 26.8629 26.8629 0 60 0C93.1371 0 120 26.8629 120 60Z" fill="#9DC950"/>
<path fill-rule="evenodd" clip-rule="evenodd" d="M60 116C90.9279 116 116 90.9279 116 60C116 29.0721 90.9279 4 60 4C29.0721 4 4 29.0721 4 60C4 90.9279 29.0721 116 60 116ZM60 120C93.1371 120 120 93.1371 120 60C120 26.8629 93.1371 0 60 0C26.8629 0 0 26.8629 0 60C0 93.1371 26.8629 120 60 120Z" fill="#77992B"/>
<path d="M107.001 52.5L109.121 57.0815L114.134 57.6824L110.432 61.1148L111.409 66.0676L107.001 63.6075L102.592 66.0676L103.57 61.1148L99.8677 57.6824L104.88 57.0815L107.001 52.5Z" fill="#FFD43C"/>
<path d="M102.972 71.5671L105.092 76.1486L110.105 76.7495L106.403 80.1819L107.38 85.1348L102.972 82.6746L98.5636 85.1348L99.5411 80.1819L95.8391 76.7495L100.852 76.1486L102.972 71.5671Z" fill="#FFD43C"/>
<path d="M91.5318 87.3542L93.6523 91.9357L98.6648 92.5366L94.9628 95.969L95.9402 100.922L91.5318 98.4617L87.1235 100.922L88.1009 95.969L84.3989 92.5366L89.4114 91.9357L91.5318 87.3542Z" fill="#FFD43C"/>
<path d="M74.8502 97.1066L76.9706 101.688L81.9831 102.289L78.2811 105.721L79.2586 110.674L74.8502 108.214L70.4418 110.674L71.4193 105.721L67.7173 102.289L72.7298 101.688L74.8502 97.1066Z" fill="#FFD43C"/>
<path d="M55.2169 99.2603L57.3373 103.842L62.3498 104.443L58.6478 107.875L59.6253 112.828L55.2169 110.368L50.8085 112.828L51.786 107.875L48.084 104.443L53.0965 103.842L55.2169 99.2603Z" fill="#FFD43C"/>
<path d="M36.5192 93.2234L38.6396 97.8049L43.6521 98.4058L39.9501 101.838L40.9275 106.791L36.5192 104.331L32.1108 106.791L33.0882 101.838L29.3862 98.4058L34.3987 97.8049L36.5192 93.2234Z" fill="#FFD43C"/>
<path d="M21.8675 79.9812L23.988 84.5627L29.0005 85.1636L25.2985 88.596L26.2759 93.5488L21.8675 91.0887L17.4592 93.5488L18.4366 88.596L14.7346 85.1636L19.7471 84.5627L21.8675 79.9812Z" fill="#FFD43C"/>
<path d="M14.0392 62.3755L16.1596 66.957L21.1721 67.5579L17.4701 70.9903L18.4476 75.9431L14.0392 73.483L9.63078 75.9431L10.6082 70.9903L6.90625 67.5579L11.9187 66.957L14.0392 62.3755Z" fill="#FFD43C"/>
<path d="M14.0724 42.4717L16.1928 47.0532L21.2053 47.6541L17.5033 51.0865L18.4808 56.0393L14.0724 53.5792L9.66399 56.0393L10.6414 51.0865L6.93945 47.6541L11.9519 47.0532L14.0724 42.4717Z" fill="#FFD43C"/>
<path d="M22.1485 24.6335L24.269 29.215L29.2815 29.8159L25.5795 33.2483L26.5569 38.2012L22.1485 35.741L17.7402 38.2012L18.7176 33.2483L15.0156 29.8159L20.0281 29.215L22.1485 24.6335Z" fill="#FFD43C"/>
<path d="M36.6366 11.7091L38.757 16.2906L43.7695 16.8915L40.0675 20.3239L41.045 25.2767L36.6366 22.8166L32.2282 25.2767L33.2056 20.3239L29.5037 16.8915L34.5162 16.2906L36.6366 11.7091Z" fill="#FFD43C"/>
<path d="M55.3859 5.72363L57.5063 10.3051L62.5188 10.906L58.8168 14.3384L59.7942 19.2913L55.3859 16.8311L50.9775 19.2913L51.9549 14.3384L48.2529 10.906L53.2654 10.3051L55.3859 5.72363Z" fill="#FFD43C"/>
<path d="M74.9894 7.94067L77.1098 12.5221L82.1223 13.123L78.4203 16.5555L79.3978 21.5083L74.9894 19.0482L70.581 21.5083L71.5584 16.5555L67.8564 13.123L72.8689 12.5221L74.9894 7.94067Z" fill="#FFD43C"/>
<path d="M91.6295 17.7338L93.7499 22.3152L98.7624 22.9161L95.0604 26.3485L96.0379 31.3014L91.6295 28.8413L87.2211 31.3014L88.1986 26.3485L84.4966 22.9161L89.5091 22.3152L91.6295 17.7338Z" fill="#FFD43C"/>
<path d="M103.168 33.881L105.289 38.4625L110.301 39.0634L106.599 42.4958L107.577 47.4486L103.168 44.9885L98.7599 47.4486L99.7374 42.4958L96.0354 39.0634L101.048 38.4625L103.168 33.881Z" fill="#FFD43C"/>
<path fill-rule="evenodd" clip-rule="evenodd" d="M50 56.3935C50.2082 56.1812 50.5231 55.9663 50.854 55.7404C51.3825 55.3797 51.9517 54.9912 52.1921 54.5412C54.2849 50.6272 56.393 46.7212 58.5118 42.8213C58.9639 41.9889 59.1291 41.1347 59.0458 40.1892C58.9055 38.5984 58.7901 37.0054 58.6747 35.4123L58.6747 35.4121C58.627 34.7533 58.5793 34.0945 58.5298 33.4359C58.2775 30.0502 63.6773 30.749 65.526 32.2101C66.9437 33.3308 67.8752 34.8202 68.571 36.4682C69.2469 38.0696 69.6204 39.7443 69.6171 41.4762C69.6154 42.3182 69.4983 43.1632 69.382 44.0029C69.3645 44.1287 69.3471 44.2545 69.3301 44.3801C69.2141 45.2352 69.0782 46.0875 68.9423 46.9401L68.9422 46.9403C68.8761 47.355 68.81 47.7697 68.7462 48.1848C68.7339 48.2637 68.7308 48.3445 68.7272 48.4425C68.7252 48.4933 68.7232 48.5487 68.7195 48.611C68.7866 48.6135 68.8518 48.6166 68.9158 48.6196C69.0537 48.6261 69.1858 48.6323 69.3181 48.6323C71.023 48.6329 72.7278 48.6329 74.4326 48.633C76.5651 48.6331 78.6977 48.6332 80.8303 48.6343C82.3691 48.635 83.7035 49.1623 84.8288 50.213C86.7631 52.0182 87.0641 55.0012 85.5293 57.1473C85.4725 57.2268 85.418 57.308 85.3583 57.397L85.3582 57.3972L85.3575 57.3983C85.3334 57.4342 85.3085 57.4714 85.2822 57.5102C86.5327 58.7926 87.1666 60.3048 86.9622 62.0973C86.7584 63.8852 85.8342 65.2383 84.3021 66.2058C84.8814 67.6347 84.9553 69.0556 84.3813 70.4733C83.8087 71.8882 82.7799 72.8724 81.3909 73.4917C81.4013 73.5602 81.4108 73.6247 81.4199 73.6865C81.4375 73.8065 81.4537 73.9162 81.4721 74.0257C82.0268 77.3417 79.4319 80.3155 76.1486 80.3075C72.8452 80.2994 69.542 80.3008 66.2388 80.3021C63.2599 80.3033 60.281 80.3045 57.302 80.2988C55.2225 80.2948 53.3507 79.6503 51.724 78.3365C51.3611 78.0435 50.5 78 50 78C50 78.3817 50.0028 78.6717 50.0052 78.9193L50.0052 78.9197V78.9198C50.0091 79.3206 50.0118 79.6106 50 80C49.9667 81.094 49.0991 81.8508 48.0131 81.9734C47.8446 81.9927 47.6735 82 47.5037 82C45.5135 82.0007 43.6702 81.9479 41.8232 81.8949H41.8231H41.823C40.0656 81.8446 38.3049 81.7941 36.4111 81.7896C36.0755 81.7889 35.722 81.7609 35.4077 81.6551C34.5833 81.3774 34.1245 80.7742 34.0313 79.9066C34.0148 79.7547 34.0156 79.6007 34.0164 79.4473C34.0165 79.415 34.0167 79.3828 34.0167 79.3506C34.0165 77.2585 34.0176 75.1663 34.0188 73.074C34.0219 67.2458 34.025 61.4174 34 55.5892C33.9934 54.103 35.0045 52.9827 36.5 53C39.1843 53.0308 41.4992 53.0207 43.9556 53.01H43.9558L43.9565 53.01C45.0535 53.0052 46.1787 53.0003 47.3776 52.9989C47.9156 52.9982 48.4217 53.0754 48.8698 53.4044C49.7292 54.0358 50 55.372 50 56.3935ZM47 76.5C47 77.3284 46.3284 78 45.5 78C44.6716 78 44 77.3284 44 76.5C44 75.6716 44.6716 75 45.5 75C46.3284 75 47 75.6716 47 76.5ZM45.5 73C46.3284 73 47 72.3284 47 71.5C47 70.6716 46.3284 70 45.5 70C44.6716 70 44 70.6716 44 71.5C44 72.3284 44.6716 73 45.5 73Z" fill="white" fill-opacity="0.96"/>
<path d="M34 55C34 53.8954 34.8954 53 36 53H48C49.1046 53 50 53.8954 50 55V80C50 81.1046 49.1046 82 48 82H36C34.8954 82 34 81.1046 34 80V55Z" fill="#0070AF"/>
<path d="M47 72.5C47 73.3284 46.3284 74 45.5 74C44.6716 74 44 73.3284 44 72.5C44 71.6716 44.6716 71 45.5 71C46.3284 71 47 71.6716 47 72.5Z" fill="#22B7FF"/>
<path d="M47 77.5C47 78.3284 46.3284 79 45.5 79C44.6716 79 44 78.3284 44 77.5C44 76.6716 44.6716 76 45.5 76C46.3284 76 47 76.6716 47 77.5Z" fill="#22B7FF"/>
</svg>
