<svg width="32" height="32" viewBox="0 0 32 32" fill="none" xmlns="http://www.w3.org/2000/svg">
<circle cx="16" cy="16" r="16" fill="#1CA1C1"/>
<path d="M16 9.09L18.45 10.58L17.8 7.77L20 5.89L17.11 5.64L16 3L14.87 5.64L12 5.89L14.18 7.77L13.5 10.58L16 9.09ZM8 15.09L10.45 16.58L9.8 13.77L12 11.89L9.11 11.64L8 9L6.87 11.64L4 11.89L6.18 13.77L5.5 16.58L8 15.09ZM24 12.09L26.45 13.58L25.8 10.77L28 8.89L25.11 8.64L24 6L22.87 8.64L20 8.89L22.18 10.77L21.5 13.58L24 12.09ZM19 25H13V12H19V25ZM11 25H5V19H11V25ZM27 25H21V15H27V25Z" fill="white"/>
</svg>
