<svg width="120" height="120" viewBox="0 0 120 120" fill="none" xmlns="http://www.w3.org/2000/svg">
<path d="M120 60C120 93.1371 93.1371 120 60 120C26.8629 120 0 93.1371 0 60C0 26.8629 26.8629 0 60 0C93.1371 0 120 26.8629 120 60Z" fill="#0070AF"/>
<path d="M120 60C120 93.1371 93.1371 120 60 120C26.8629 120 0 93.1371 0 60C0 26.8629 26.8629 0 60 0C93.1371 0 120 26.8629 120 60Z" fill="#0070AF"/>
<path fill-rule="evenodd" clip-rule="evenodd" d="M60 116C90.9279 116 116 90.9279 116 60C116 29.0721 90.9279 4 60 4C29.0721 4 4 29.0721 4 60C4 90.9279 29.0721 116 60 116ZM60 120C93.1371 120 120 93.1371 120 60C120 26.8629 93.1371 0 60 0C26.8629 0 0 26.8629 0 60C0 93.1371 26.8629 120 60 120Z" fill="#055582"/>
<path d="M35.5033 26.012C35.4997 25.4597 35.9477 25 36.5 25H59.5V68C44.667 68 35.7011 55.7768 35.5033 26.012Z" fill="#FFE26A"/>
<path d="M39.5 86C39.5 84.8551 40.3487 83.8967 41.4749 83.6907C48.5659 82.3943 56.5 78.7082 56.5 65H59.5V86H39.5Z" fill="#FFE26A"/>
<path d="M33 87C33 86.4477 33.4477 86 34 86H60V88H34C33.4477 88 33 87.5523 33 87Z" fill="#FFB83A"/>
<path d="M33 100C33 99.4477 33.4477 99 34 99H60V101H34C33.4477 101 33 100.552 33 100Z" fill="#FFB83A"/>
<rect x="35" y="88" width="25" height="10" fill="#FFB83A"/>
<path d="M38.5 30.5H31.4609C27.9726 30.5 25.1654 33.4932 26.0425 36.8694C28.6817 47.0287 35.568 54 43.5 54" stroke="#FFE26A" stroke-width="3"/>
<rect x="35" y="88" width="26" height="1" fill="#E59211"/>
<rect x="35" y="98" width="25" height="1" fill="#E59211"/>
<rect x="35" y="27" width="25" height="1" fill="#FFB73A"/>
<path d="M34 25.5C34 24.6716 34.6716 24 35.5 24H60V27H35.5C34.6716 27 34 26.3284 34 25.5Z" fill="#FFE26A"/>
<path d="M83.4967 26.012C83.5003 25.4597 83.0523 25 82.5 25H59.5V68C74.333 68 83.2989 55.7768 83.4967 26.012Z" fill="#FFE26A"/>
<path d="M79.5 86C79.5 84.8551 78.6513 83.8967 77.5251 83.6907C70.4341 82.3943 62.5 78.7082 62.5 65H59.5V86H79.5Z" fill="#FFE26A"/>
<path d="M86 87C86 86.4477 85.5523 86 85 86H59V88H85C85.5523 88 86 87.5523 86 87Z" fill="#FFB83A"/>
<path d="M86 100C86 99.4477 85.5523 99 85 99H59V101H85C85.5523 101 86 100.552 86 100Z" fill="#FFB83A"/>
<rect width="25" height="10" transform="matrix(-1 0 0 1 84 88)" fill="#FFB83A"/>
<path d="M80.5 30.5H87.5391C91.0274 30.5 93.8346 33.4932 92.9575 36.8694C90.3183 47.0287 83.432 54 75.5 54" stroke="#FFE26A" stroke-width="3"/>
<rect width="26" height="1" transform="matrix(-1 0 0 1 84 88)" fill="#E59211"/>
<rect width="25" height="1" transform="matrix(-1 0 0 1 84 98)" fill="#E59211"/>
<rect width="25" height="1" transform="matrix(-1 0 0 1 84 27)" fill="#FFB73A"/>
<path d="M85 25.5C85 24.6716 84.3284 24 83.5 24H59V27H83.5C84.3284 27 85 26.3284 85 25.5Z" fill="#FFE26A"/>
</svg>
